<svg xmlns="http://www.w3.org/2000/svg" viewBox="0 0 36 36" aria-labelledby="title desc"><desc>Hex shell with scaled pickaxe silhouette cut out.</desc><defs><linearGradient id="a" x1="32" y1="30" x2="6" y2="6" gradientUnits="userSpaceOnUse"><stop stop-color="#3585A3"/><stop offset="1" stop-color="#00DEAE"/></linearGradient><mask id="b"><path fill="#fff" d="M0 0h36v36H0z"/><path d="m26.297 24.512-9.954-9.952.454-.454a.63.63 0 0 0 .168-.59c2.646-2.142 5.393-3.362 7.437-3.37-2.104-1.24-5.58-.458-8.767 1.903l-.182-.182a.635.635 0 0 0-.897 0l-.454.453-.98-.98a.5.5 0 0 0-.36-.14c-.777 0-1.981 1.365-1.425 1.916l.985.984-.455.455a.636.636 0 0 0 0 .896l.182.183c-2.36 3.185-3.142 6.661-1.903 8.764.009-2.044 1.229-4.79 3.372-7.435a.63.63 0 0 0 .589-.168l.455-.455 9.958 9.955a.5.5 0 0 0 .359.142c.771 0 1.97-1.369 1.418-1.925"/></mask></defs><path fill="url(#a)" mask="url(#b)" d="m18 2 14 8v16l-14 8-14-8V10Z"/><path fill="none" stroke="rgba(255,255,255,0.35)" stroke-width=".6" d="m18 3.8 12.2 7v14.4l-12.2 7-12.2-7V10.8Z"/></svg>
